<?xml version="1.0" standalone="no"?>
<!DOCTYPE svg PUBLIC "-//W3C//DTD SVG 20010904//EN"
 "http://www.w3.org/TR/2001/REC-SVG-20010904/DTD/svg10.dtd">
<svg version="1.0" xmlns="http://www.w3.org/2000/svg"
 width="700.000000pt" height="700.000000pt" viewBox="0 0 700.000000 700.000000"
 preserveAspectRatio="xMidYMid meet">
<metadata>
Created by potrace 1.14, written by Peter Selinger 2001-2017
</metadata>
<g transform="translate(0.000000,700.000000) scale(0.100000,-0.100000)"
fill="#000000" stroke="none">
<path d="M710 6839 c-283 -32 -502 -243 -547 -527 -3 -20 -6 -1279 -7 -2797
-2 -2068 1 -2778 10 -2830 18 -109 38 -160 98 -255 77 -120 211 -214 367 -256
60 -16 238 -17 2858 -18 3101 -1 2856 -6 3002 63 187 88 319 271 347 478 4 32
7 1307 6 2833 -1 2569 -2 2780 -17 2837 -66 240 -235 406 -474 464 -36 9 -729
12 -2818 13 -1524 1 -2795 -2 -2825 -5z m5582 -482 c30 -16 49 -35 64 -64 l22
-42 -1 -2753 c0 -1920 -3 -2760 -10 -2778 -17 -40 -39 -62 -83 -81 -41 -18
-134 -19 -2787 -19 l-2744 1 -44 22 c-31 16 -50 34 -65 64 l-22 43 0 2750 0
2751 22 42 c15 29 34 48 63 63 l43 22 2749 0 2750 1 43 -22z"/>
<path d="M2146 4753 c-3 -3 -6 -186 -6 -405 l0 -400 -40 35 c-92 78 -220 120
-357 116 -334 -10 -573 -279 -628 -709 -11 -92 -6 -337 10 -420 3 -14 7 -41
10 -60 27 -168 109 -340 205 -428 58 -55 164 -111 237 -128 60 -13 205 -12
271 3 114 26 238 103 292 181 31 44 31 43 45 -75 4 -35 10 -64 14 -64 3 -1
102 -3 219 -4 l212 -1 0 1152 c0 1089 -1 1153 -17 1158 -10 2 -47 7 -83 11
-137 12 -176 16 -200 20 -14 3 -56 7 -95 11 -38 3 -73 8 -76 10 -3 2 -9 1 -13
-3z m-131 -1041 c22 -11 59 -39 83 -63 l42 -42 0 -357 0 -357 -31 -44 c-106
-149 -268 -191 -375 -97 -85 75 -117 206 -117 473 0 281 58 437 183 495 57 26
156 23 215 -8z"/>
<path d="M3539 4756 c-2 -3 -29 -7 -59 -10 -49 -4 -85 -8 -200 -21 -19 -2 -69
-7 -110 -11 -41 -3 -82 -10 -90 -14 -13 -7 -15 -144 -14 -1152 1 -628 2 -1146
3 -1149 0 -3 98 -5 215 -5 l215 0 6 41 c4 22 9 54 12 72 l5 31 35 -38 c86 -96
212 -151 350 -155 138 -4 246 24 345 88 180 117 291 327 327 617 14 111 6 382
-14 480 -3 14 -8 37 -10 51 -3 15 -14 58 -26 95 -53 173 -158 306 -290 368
-93 44 -111 48 -235 52 -160 5 -276 -41 -387 -153 -29 -29 -54 -53 -57 -53 -3
0 -5 194 -4 431 0 383 -3 449 -17 435z m401 -1050 c98 -65 142 -221 141 -501
0 -127 -13 -222 -42 -309 -43 -126 -108 -183 -219 -193 -91 -9 -166 25 -234
105 l-30 34 0 352 0 352 32 46 c42 61 105 114 156 131 64 22 148 15 196 -17z"/>
<path d="M5592 3028 c-172 -26 -295 -177 -288 -353 6 -132 76 -239 194 -297
59 -29 76 -33 147 -32 139 1 247 68 312 194 25 49 28 65 28 150 -1 83 -4 101
-27 145 -77 147 -210 217 -366 193z"/>
</g>
</svg>
